PathFileType	4	(X/Y/Z)	RBDS011\RBDS011runT35.trc
DataRate	CameraRate	NumFrames	NumMarkers	Units	OrigDataRate	OrigDataStartFrame	OrigNumFrames
150.000000	150.000000	6	33	mm	150.000000	1687	4500
Frame#	Time	L.ASIS			L.Heel.Bottom			L.Heel.Lateral			L.Heel.Top			L.Iliac.Crest			L.MT1			L.MT5			L.PSIS			L.Shank.Bottom.Lateral			L.Shank.Bottom.Medial			L.Shank.Top.Lateral			L.Shank.Top.Medial			L.Thigh.Bottom.Lateral			L.Thigh.Bottom.Medial			L.Thigh.Top.Lateral			L.Thigh.Top.Medial			R.ASIS			R.ASY			R.Heel.Bottom			R.Heel.Lateral			R.Heel.Top			R.Iliac.Crest			R.MT1			R.MT5			R.PSIS			R.Shank.Bottom.Lateral			R.Shank.Bottom.Medial			R.Shank.Top.Lateral			R.Shank.Top.Medial			R.Thigh.Bottom.Lateral			R.Thigh.Bottom.Medial			R.Thigh.Top.Lateral			R.Thigh.Top.Medial			
		X1	Y1	Z1	X2	Y2	Z2	X3	Y3	Z3	X4	Y4	Z4	X5	Y5	Z5	X6	Y6	Z6	X7	Y7	Z7	X8	Y8	Z8	X9	Y9	Z9	X10	Y10	Z10	X11	Y11	Z11	X12	Y12	Z12	X13	Y13	Z13	X14	Y14	Z14	X15	Y15	Z15	X16	Y16	Z16	X17	Y17	Z17	X18	Y18	Z18	X19	Y19	Z19	X20	Y20	Z20	X21	Y21	Z21	X22	Y22	Z22	X23	Y23	Z23	X24	Y24	Z24	X25	Y25	Z25	X26	Y26	Z26	X27	Y27	Z27	X28	Y28	Z28	X29	Y29	Z29	X30	Y30	Z30	X31	Y31	Z31	X32	Y32	Z32	X33	Y33	Z33	

1688	11.24666666666667	2343.26197574165	1012.277106002044	898.7203163889319	1677.636926180038	380.6238305894622	996.5442971527793	1689.435467951781	353.5384641716757	957.927084302495	1726.886228558001	378.3344195560329	991.2674328639387	2308.472674029535	1103.57103683755	875.4789310385069	1736.876736570055	165.9922102918268	1052.218324507131	1705.436154716809	178.9104301214062	942.9470703186576	2191.115682558035	1073.915159570537	980.7562090237016	1807.896478228058	370.4342886020821	933.8636914610709	1791.487740767817	398.6962825280334	978.8536076189107	1866.018724776978	424.2623269198202	921.9973407118215	1850.896652270122	452.3745622522111	965.5735870520742	2140.481344246978	651.7965340837159	887.814390284564	2085.925854335517	672.8123789900261	931.660862694962	2162.198452034327	758.8874404474187	870.6504345937809	2113.15280140497	778.428893725227	914.7036239869192	2358.617316493551	1031.742127554699	1139.018480101699	2651.560346669132	183.3863932829683	1073.297707816656	2509.535661322084	53.51286947467887	1064.627321777925	2529.992770021108	75.0354710497097	1107.34498433822	2498.691152851309	102.5036433022307	1073.809405570621	2307.427763871494	1098.992863137397	1185.690411459114	2703.929253061837	163.1857532963608	1011.990686121202	2699.315850644631	125.9848779544627	1124.097289590893	2193.197074746524	1078.530222442286	1081.899507434558	2512.963652729718	208.232188683561	1127.855109332419	2479.211873077606	210.5190203061709	1088.537205978697	2488.276462070905	286.3251472020632	1150.332568996318	2452.977583260277	283.9436522043577	1110.554372800455	2406.952131124342	662.3003327633094	1197.12606928169	2352.389687653907	638.5002825324273	1154.77168943629	2352.826075250265	756.3910707254136	1212.644891759447	2299.647173509414	734.4909547520344	1174.8612859885	
1689	11.25333333333333	2344.896793661626	1011.335778966136	899.4414519859149	1676.310987216463	396.9930012611405	995.8067621545999	1687.377885741691	369.109452881906	957.5723872438159	1725.431241015066	392.9521492252529	991.0047891056375	2308.178823659553	1101.976488478857	875.639211964811	1728.070783140746	181.2008579197078	1053.529517074141	1697.539828791247	194.2009248141863	943.900726056706	2191.756694699588	1071.747682185744	980.4994020990335	1806.942538154628	380.8901876434736	933.9247094090363	1791.806545900643	410.4580851785005	978.4934616268957	1867.82691105262	431.6421863796974	921.825867229855	1853.864500904054	461.0846002298053	964.9284955610823	2148.009132532415	647.3091172140716	887.0952037498387	2092.509850356113	667.7209509939478	930.0206641540591	2168.228531384163	754.5887063022176	869.5417407074352	2117.961127917551	773.7374588817158	912.6229567654484	2358.301209040058	1030.53658062253	1139.922550618076	2653.112003761699	183.049864777132	1071.723306629847	2513.398986893236	50.2711779847242	1063.223723277577	2533.734584226002	71.92866250411055	1105.975106684672	2501.570740702955	99.06436476518837	1072.799643417043	2306.792544738932	1097.183637713754	1185.985249895802	2705.57331071097	164.3506617413468	1009.859119594461	2702.306564084337	125.9803071557663	1121.779864811275	2193.102312505585	1076.442759415401	1081.666083966607	2514.315044728467	205.5442738168304	1126.831022114663	2480.369128015777	207.264440544695	1087.566762728767	2488.55670715373	283.3094540759668	1149.304288048092	2453.149557357412	280.3415862809514	1109.643034046906	2403.798537283624	659.2323315885603	1196.313723191762	2349.009599120756	636.3620391053503	1153.598863480528	2350.729617026468	753.8775288562661	1212.115623550458	2297.413766879541	732.7487247198259	1174.14169050593	
1690	11.26	2346.619761438636	1010.032528994931	900.2271651842535	1676.586243111081	413.326009625628	994.9310157768465	1686.949680783089	384.6589950183196	957.1215642948079	1725.479981933262	407.5472403450801	990.6847931507856	2307.915091029947	1099.852082514994	875.6721973323079	1720.768713074216	196.7577982891206	1054.855687735278	1691.302871451997	209.790169405824	944.7928257020425	2192.470883356241	1068.877116530466	980.1998403972735	1807.362901433268	391.2436198585769	933.9220603187766	1793.526242046078	422.1241923547688	977.9922953634471	1870.868844033523	438.7622710958824	921.5593546441271	1858.083626405787	469.5513455202188	964.0961428476149	2155.858882418645	642.394117261689	886.2018369113785	2099.583291707274	662.0330280858734	928.4634480857314	2174.403593141561	749.8774566923644	868.3825403423228	2123.114359651696	768.4726897922208	910.7322885388967	2358.008745029223	1029.110003334921	1141.020290786743	2651.868325172256	180.7491720526195	1070.774898438809	2513.291707220597	46.74641690249341	1061.854198811457	2533.410044997056	68.46091416276421	1104.715126446218	2501.023552780355	95.42677445101725	1071.575688153398	2305.910504266499	1094.986819949469	1186.32095730428	2704.509073762792	162.6425113377132	1008.891532253809	2701.410194209096	123.8437954561335	1120.605922900441	2193.051572603514	1073.698505488198	1081.382467109998	2513.194404119132	202.1853820840414	1125.903613346625	2479.060903508417	203.5795599985158	1086.708983512023	2487.037941761069	279.8356293585616	1148.315213295381	2451.484945231501	276.5227933972693	1108.775697571697	2401.082340128726	655.9157420106444	1195.052628918892	2345.9232661823	633.8204065064805	1152.257264832862	2349.035363736148	751.0825474895505	1211.091231185988	2295.468585814739	730.5643139003785	1173.237205285385	
1691	11.26666666666667	2348.382786360593	1008.352755640949	901.062530381207	1678.630297151753	429.5155157077078	994.0043762284538	1688.265668162694	400.1006787914113	956.6155453400079	1727.208768503668	421.974829808996	990.3351137363222	2307.749651700827	1097.244175896507	875.5965636272429	1715.018985363432	212.4087039669161	1056.035584325349	1686.692185576848	225.538352059709	945.5196195818166	2193.25122872664	1065.333283746515	979.8476154040932	1809.215798768954	401.3668781501906	933.8170210006371	1796.715002258123	433.5121394151778	977.347134121185	1875.151806460682	445.5314306705374	921.1681795899535	1863.580442516548	477.6269014138124	963.0850698472441	2163.870339959199	637.1283058133582	885.1520197159604	2107.038132383648	655.814848723823	927.0742552270741	2180.571955278261	744.8283973569587	867.2308763712127	2128.519379205313	762.6920427143946	909.1506241726556	2357.753467421347	1027.438670030837	1142.290865172658	2648.014256017441	176.4668852467054	1070.339620480061	2509.329990353601	42.96376725546953	1060.580095418042	2529.185397514912	64.64038779883215	1103.603202827278	2497.190098256403	91.6207205655226	1070.192386334221	2304.793006545059	1092.422405590706	1186.681014861195	2700.886736512455	158.0511735736641	1008.912551135733	2696.876026630862	119.5470591862133	1120.452832375139	2193.065284464242	1070.319513108546	1081.044606786502	2509.759258575855	198.1103103745421	1125.08536000069	2475.41468916482	199.4370183150983	1086.002191219382	2483.862518933671	275.8614474791827	1147.404534345806	2448.096112707867	272.4610564457676	1108.016061800605	2398.847071967186	652.3348742331325	1193.455479718559	2343.195401869058	630.8512630148568	1150.837676062657	2347.764418927476	747.9810956340547	1209.675783006292	2293.840838888932	727.912464757124	1172.22092528403	
1692	11.27333333333333	2350.134740231195	1006.279468666535	901.9309653372518	1682.530840593146	445.4156298870104	993.1406468579546	1691.373193611636	415.3257668419636	956.1152331244567	1730.715007997578	436.0764292534386	990.0067560017177	2307.749555038965	1094.194604005067	875.4364025879803	1710.866249547159	227.8857849100866	1056.908428724131	1683.67940082036	241.298282070822	945.9764854869442	2194.077880542977	1061.158762339309	979.4369763109655	1812.517090452921	411.1418618450232	933.5874332459313	1801.40108165834	444.4525636762552	976.5740088229081	1880.652870112331	451.8691430295313	920.6335388678697	1870.353944072791	485.1739805829371	961.92146102782	2171.907500114876	631.5723815007767	883.9601458860141	2114.772144580823	649.123927847918	925.90790471378	2186.607069835516	739.500500436646	866.1338336978818	2134.084075806062	756.4448898394058	907.960235955267	2357.548204041137	1025.479425075445	1143.699448920129	2641.769107250471	170.3207160239932	1070.262397242175	2501.734373302913	39.04176710159133	1059.45477520666	2521.346005284248	60.57293007184911	1102.661029638411	2490.298806995724	87.75655818918237	1068.714226866563	2303.478076277853	1089.492896078489	1187.050590797985	2694.857384310262	150.7451757799901	1009.674668149535	2689.037072701335	113.2256110971523	1121.122463050306	2193.150704163793	1066.334423123037	1080.656742488749	2504.217689129869	193.3589559201664	1124.370575997164	2469.622938762862	194.8876128749571	1085.462026243052	2479.210558437079	271.4093519954802	1146.596828579126	2443.149087480866	268.1905514464516	1107.407826885866	2397.128099736814	648.4844237643974	1191.67818015878	2340.897371919705	627.4498466487692	1149.451117463779	2346.923653852083	744.5545695290591	1208.028920029495	2292.557682817477	724.7853946563616	1171.191712188818	
1693	11.28	2351.823715554138	1003.794180337516	902.8153995223023	1688.287474258934	460.8494637416704	992.4600567374991	1696.251103672335	430.2051563953597	955.6880768858437	1736.010898177188	449.6891103220546	989.7632126158536	2307.974889767909	1090.735880383393	875.2187363774018	1708.35229714934	242.9210082855437	1057.328572512413	1682.253604760753	256.912391864036	946.0661701069906	2194.917960165132	1056.407934984832	978.9682620605827	1817.243282502247	420.4637895090306	933.2267295446837	1807.572015141288	454.797481248614	975.7022552394176	1887.323137405814	457.7093869647237	919.9472487953979	1878.374615088302	492.074419288454	960.6438447601591	2179.86603462566	625.7714133283143	882.6364513930588	2122.694032394495	642.0098775122469	924.9837904530876	2192.414519880957	733.9366868236311	865.123886401371	2139.723804678982	749.7730021580822	907.2004876918759	2357.401696109197	1023.176431297997	1145.199215639208	2633.372455357371	162.5589012618567	1070.361893330691	2490.818873652665	35.17077472144332	1058.513673951997	2510.273808539563	56.44504230391907	1101.888515272993	2480.64907997015	84.00643400531793	1067.202028917568	2302.030227591048	1086.183633763518	1187.41845214655	2686.575534004281	141.0642323310592	1010.889644797643	2678.284959116685	105.175018205618	1122.367875774938	2193.2982466929	1061.779991401888	1080.231673140978	2496.816125724798	188.055531271154	1123.732871102746	2461.930896486528	190.0590838394926	1085.077817230425	2473.291058640646	266.5675288494052	1145.897276104863	2436.854738248443	263.8066016261003	1106.968703275295	2395.948233117178	644.3757937123693	1189.896540226664	2339.0980892573	623.6345642432665	1148.21305178584	2346.502685632487	740.7979879540928	1206.34054825727	2291.638241124193	721.1959723664731	1170.259611323222	
